<svg width="12" height="16" viewBox="0 0 12 16" fill="none" xmlns="http://www.w3.org/2000/svg">
    <path d="M3 2C2.44772 2 2 2.44772 2 3V13C2 13.5523 2.44772 14 3 14H9C9.55229 14 10 13.5523 10 13V7C10 6.44772 10.4477 6 11 6C11.5523 6 12 6.44772 12 7V13C12 14.6569 10.6569 16 9 16H3C1.34315 16 0 14.6569 0 13V3C0 1.34315 1.34315 0 3 0H9C10.6569 0 12 1.34315 12 3V4C12 4.55228 11.5523 5 11 5C10.4477 5 10 4.55228 10 4V3C10 2.44772 9.55229 2 9 2H8C8 2.55228 7.55228 3 7 3H5C4.44772 3 4 2.55228 4 2H3Z" fill="white"/>
    <path d="M6 13C6.55228 13 7 12.5523 7 12C7 11.4477 6.55228 11 6 11C5.44772 11 5 11.4477 5 12C5 12.5523 5.44772 13 6 13Z" fill="white"/>
</svg>