<svg width="16" height="14" viewBox="0 0 16 14" fill="none" xmlns="http://www.w3.org/2000/svg">
    <path d="M8.89482 6.44739C9.14179 5.9534 8.94154 5.35274 8.44755 5.10577C7.95356 4.8588 7.3529 5.05904 7.10593 5.55303L6.106 7.5531C5.95101 7.86309 5.96759 8.23123 6.14981 8.52604C6.33203 8.82085 6.6539 9.00029 7.00047 9.00028L7.52332 9.00026L7.0719 10.1288C6.86678 10.6416 7.1162 11.2236 7.62898 11.4287C8.14177 11.6338 8.72374 11.3844 8.92885 10.8716L9.92885 8.3716C10.0521 8.06351 10.0145 7.71434 9.82843 7.43957C9.6424 7.16479 9.33217 7.0002 9.00034 7.00021L8.61843 7.00022L8.89482 6.44739Z" fill="white"/>
    <path fill-rule="evenodd" clip-rule="evenodd" d="M9.71943 0.980975C9.33121 0.33263 8.67188 0 8.00352 0C7.33516 0 6.67639 0.332331 6.28806 0.980215L0.299349 10.9717C0.101007 11.3027 0 11.6549 0 11.9999C0 13.0287 0.846427 13.9999 2.0148 13.9999H13.9862C15.1545 13.9999 16 13.0548 16 11.9999C16 11.6525 15.9001 11.3032 15.7021 10.9725L9.71943 0.980975ZM2 11.9999L8.00352 2.00842L14 11.9999H2Z" fill="white"/>
</svg>