<svg width="13" height="16" viewBox="0 0 13 16" fill="none" xmlns="http://www.w3.org/2000/svg">
    <path fill-rule="evenodd" clip-rule="evenodd" d="M8 1C8 0.447715 7.55228 0 7 0C6.44772 0 6 0.447715 6 1V6.5C6 7.05228 6.44772 7.5 7 7.5C7.55228 7.5 8 7.05228 8 6.5V1ZM9.5 1C10.0523 1 10.5 1.44772 10.5 2L10.5 7C10.5 7.55228 10.0523 8 9.5 8C8.94772 8 8.5 7.55228 8.5 7V2C8.5 1.44772 8.94772 1 9.5 1ZM13.0001 4C13.0001 3.44771 12.5523 3 12.0001 3C11.4478 3 11.0001 3.44771 11.0001 4L11.0001 10C11.0001 12.2091 9.2092 14 7.00006 14C4.79092 14 3.00006 12.2091 3.00006 10C4.1046 10 5 10.8955 5 12C5 12.5523 5.44772 13 6 13C6.55228 13 7 12.5523 7 12C7 9.79088 5.20917 8.00003 3.00006 8V7.4992C3.00006 6.95912 2.82517 6.43355 2.50156 6.00115L2.30067 5.73273C1.96975 5.29056 1.34304 5.20038 0.900876 5.5313C0.45871 5.86222 0.368528 6.48893 0.699448 6.9311L0.900334 7.19952C0.965073 7.28602 1.00006 7.39116 1.00006 7.4992L1.00006 10C1.00006 13.3137 3.68635 16 7.00006 16C10.3138 16 13.0001 13.3137 13.0001 10L13.0001 4ZM4.5 1C5.05228 1 5.5 1.44772 5.5 2V6C5.5 6.55228 5.05228 7 4.5 7C3.94772 7 3.5 6.55228 3.5 6V2C3.5 1.44772 3.94772 1 4.5 1Z" fill="white"/>
</svg>