<svg width="16" height="14" viewBox="0 0 16 14" fill="none" xmlns="http://www.w3.org/2000/svg">
    <path d="M0 2.00012C0 0.895554 0.89543 0.00012207 2 0.00012207H14C15.1046 0.00012207 16 0.895552 16 2.00012V9.00012C16 10.1047 15.1046 11.0001 14 11.0001H2C0.895431 11.0001 0 10.1047 0 9.00012V8.50012C0 7.94784 0.447715 7.50012 1 7.50012C1.55228 7.50012 2 7.94784 2 8.50012V9.00012H14V2.00012L2 2.00012V5.00012H4.43381L5.64251 2.98563C5.83029 2.67266 6.17366 2.48686 6.53838 2.50086C6.90309 2.51487 7.2312 2.72646 7.39443 3.05291L8.77395 5.81196L9.29289 5.29302C9.48043 5.10548 9.73478 5.00012 10 5.00012H12C12.5523 5.00012 13 5.44784 13 6.00012C13 6.55241 12.5523 7.00012 12 7.00012H10.4142L9.20711 8.20723C8.97981 8.43453 8.65711 8.5387 8.33982 8.48721C8.02252 8.43572 7.74933 8.23485 7.60557 7.94734L6.42025 5.57669L5.85749 6.51462C5.67677 6.81583 5.35126 7.00012 5 7.00012H1C0.447715 7.00012 0 6.55241 0 6.00012C0 5.98489 0.000340644 5.96974 0.00101473 5.95467C0.000340644 5.9396 0 5.92445 0 5.90921V2.00012Z" fill="white"/>
    <path d="M5 12.0001C4.44772 12.0001 4 12.4478 4 13.0001C4 13.5524 4.44772 14.0001 5 14.0001H11.4C11.9523 14.0001 12.4 13.5524 12.4 13.0001C12.4 12.4478 11.9523 12.0001 11.4 12.0001H5Z" fill="white"/>
</svg>