<svg width="14" height="16" viewBox="0 0 14 16" fill="none" xmlns="http://www.w3.org/2000/svg">
    <path fill-rule="evenodd" clip-rule="evenodd" d="M5.99988 2.19141C5.16939 2.5834 4.5207 3.12655 3.62253 3.53148C3.20287 3.72067 2.54297 4.2667 2.63229 4.82757C2.87538 6.35399 3.46301 8.24779 4.33467 10.0009C4.81983 10.9766 5.3861 11.8852 5.99988 12.6484V2.19141ZM6.9859 16C7.2305 16.0032 7.4732 15.9169 7.66223 15.7497C10.8859 13.4002 13.0136 9.04881 13.4264 5.09475C13.5177 4.22041 13.1682 3.49004 12.6906 2.9546C12.2241 2.43166 11.608 2.05645 11.0216 1.81311C10.7617 1.70526 10.5162 1.57215 10.2683 1.42048C9.79717 1.13227 9.18161 1.28054 8.8934 1.75166C8.60518 2.22277 8.75346 2.83833 9.22457 3.12655C9.52802 3.31219 9.86907 3.50023 10.2551 3.66039C10.6498 3.82418 10.9856 4.04778 11.1981 4.286C11.3995 4.51173 11.4562 4.70488 11.4372 4.88708C11.1441 7.69501 9.87147 10.5679 7.99988 12.6484V1.84376C7.99988 1.2966 7.76476 0.767472 7.35038 0.408253C7.06062 0.157066 6.66628 1.14441e-05 6.27635 1.14441e-05C6.05647 1.14441e-05 5.84597 0.040984 5.62742 0.132815C4.68194 0.530098 4.36388 0.97239 2.97869 1.7422C2.27353 2.13409 1.77344 2.43566 1.3153 2.96717C0.84274 3.51542 0.517061 4.26228 0.657181 5.14212C0.933702 6.87844 1.58639 8.96573 2.54383 10.8913C3.47758 12.7693 4.74706 14.5858 6.32961 15.749C6.39091 15.8033 6.45942 15.8504 6.53416 15.8889C6.67659 15.9623 6.83144 15.999 6.9859 16Z" fill="white"/>
</svg>