<svg width="14" height="16" viewBox="0 0 14 16" fill="none" xmlns="http://www.w3.org/2000/svg">
    <path d="M9.7014 0.324315C9.40092 -0.00645715 8.91887 -0.094763 8.52234 0.108322C8.12581 0.311407 7.91189 0.756155 7.9991 1.19616C8.34388 2.93571 7.90723 4.05196 7.37623 4.57346C6.88555 5.05535 6.15964 5.19542 5.34415 4.68496C4.87905 4.39383 4.26812 4.53828 3.97961 5.0076C3.69109 5.47692 3.83424 6.09338 4.29934 6.38452C5.82869 7.34182 7.56641 7.17757 8.75863 6.00669C9.30822 5.46694 9.70155 4.75561 9.91556 3.92182C11.2261 6.11041 11.6974 8.33873 11.4574 10.1149C11.2969 11.302 10.8264 12.2601 10.1133 12.9186C9.40696 13.5709 8.3868 14 6.98859 14C5.59557 14 4.63663 13.5741 3.97409 12.9593C3.29731 12.3313 2.85006 11.4309 2.63269 10.3616C2.18953 8.18161 2.76096 5.59284 3.83095 4.08128C4.14908 3.63186 4.04592 3.00731 3.60055 2.68631C3.15517 2.3653 2.53623 2.46939 2.21811 2.9188C0.810559 4.90723 0.143226 8.06847 0.691082 10.7635C0.969221 12.1317 1.57492 13.4501 2.63242 14.4314C3.70415 15.426 5.16082 16 6.98859 16C8.81119 16 10.3305 15.4292 11.4514 14.394C12.5656 13.365 13.21 11.9481 13.4212 10.3852C13.8411 7.27842 12.5795 3.49255 9.7014 0.324315Z" fill="white"/>
    <path d="M5.06833 11.8357C6.12191 13.8119 10.7923 11.9399 9.65806 7.95734C9.61611 7.81002 9.42749 7.77165 9.31217 7.87142C8.82793 8.2904 8.21416 8.47052 7.62851 8.64239C7.24716 8.7543 6.87772 8.86272 6.56374 9.03131C5.23162 9.74657 4.51291 10.7939 5.06833 11.8357Z" fill="white"/>
</svg>